# xmcd
#
# Track frame offsets: 
#        150
#        15449
#        30359
#        50700
#        71301
#        87668
#        104235
#        117189
#        130226
#        155147
#        170806
#        184446
#        209133
#        230835
#
# Disc length: 3255 seconds
#
# Revision: 0
# Processed by: cddbd v1.5.2PL0 Copyright (c) Steve Scherf et al.
# Submitted via: ExactAudioCopy v1.0b1
#
DISCID=d60cb50e
DTITLE=Fred James and Mary-Ann Brandon - We Belong Together
DYEAR=2011
DGENRE=Blues
TTITLE0=Wrong Train, Right Track
TTITLE1=We Belong Together
TTITLE2=We're All In It Together
TTITLE3=No Easy Way Out
TTITLE4=Go Ahead On
TTITLE5=Snakin' Up On You
TTITLE6=No More One More Chance
TTITLE7=I Do Declare
TTITLE8=We Got A Secret
TTITLE9=Sleeping With The Devil
TTITLE10=Check Out Her Mama
TTITLE11=I Can't Do That
TTITLE12=A Fool's Advice
TTITLE13=He's Cool And She's Hot
EXTD=
EXTT0=
EXTT1=
EXTT2=
EXTT3=
EXTT4=
EXTT5=
EXTT6=
EXTT7=
EXTT8=
EXTT9=
EXTT10=
EXTT11=
EXTT12=
EXTT13=
PLAYORDER=
